<svg xmlns="http://www.w3.org/2000/svg" width="1400" height="642.75"><rect width="1400" height="642.75" rx="5" ry="5" class="a"/><svg y="0%" x="0%"><circle cx="20" cy="20" r="6" fill="#ff5f58"/><circle cx="40" cy="20" r="6" fill="#ffbd2e"/><circle cx="60" cy="20" r="6" fill="#18c132"/></svg><svg height="542.75" viewBox="0 0 132 54.275" width="1320" x="35" xmlns="http://www.w3.org/2000/svg" y="70"><style>.inserted-lf{fill:#999999;fill-opacity:.75;font-variant-position:sub;font-size:75%}.container{font-family:'JetBrains Mono','Monaco','Consolas','Menlo','Bitstream Vera Sans Mono','Lucida Console','Ubuntu Mono','Meslo for Powerline','Meslo LG M for Powerline','Powerline Symbols','Monospace','monospace'}.container>g{animation-play-state:running}.container_end{fill:whitesmoke;mix-blend-mode:soft-light;opacity:0;transition:opacity .2s ease-in-out}.container:hover>g{animation-play-state:paused}.container{pointer-events:all}.container:hover{cursor:wait}.container:hover>.container_end{opacity:1}.container>g>svg>svg>*{transform: scaleY(.95);}@keyframes l{0%{transform:translateX(0)}.04%{transform:translateX(-132px)}.14%{transform:translateX(-264px)}5.36%{transform:translateX(-396px)}5.56%{transform:translateX(-528px)}5.77%{transform:translateX(-660px)}5.98%{transform:translateX(-792px)}6.18%{transform:translateX(-924px)}6.38%{transform:translateX(-1056px)}6.58%{transform:translateX(-1188px)}6.79%{transform:translateX(-1320px)}6.99%{transform:translateX(-1452px)}7.2%{transform:translateX(-1584px)}9.92%{transform:translateX(-1716px)}12.43%{transform:translateX(-1848px)}12.44%{transform:translateX(-2112px)}12.45%{transform:translateX(-2376px)}15.29%{transform:translateX(-2640px)}15.31%{transform:translateX(-2904px)}15.32%{transform:translateX(-3168px)}15.37%{transform:translateX(-3432px)}15.4%{transform:translateX(-3696px)}15.43%{transform:translateX(-3960px)}15.44%{transform:translateX(-4224px)}15.45%{transform:translateX(-4488px)}15.47%{transform:translateX(-4752px)}15.5%{transform:translateX(-5016px)}15.52%{transform:translateX(-5280px)}15.53%{transform:translateX(-5544px)}15.54%{transform:translateX(-5676px)}15.55%{transform:translateX(-5808px)}15.56%{transform:translateX(-6072px)}15.57%{transform:translateX(-6336px)}15.74%{transform:translateX(-6600px)}15.75%{transform:translateX(-6864px)}72.23%{transform:translateX(-7128px)}74.67%{transform:translateX(-7524px)}74.68%{transform:translateX(-7656px)}77.19%{transform:translateX(-7788px)}79.7%{transform:translateX(-7920px)}79.71%{transform:translateX(-8052px)}82.33%{transform:translateX(-8184px)}84.86%{transform:translateX(-8316px)}84.87%{transform:translateX(-8448px)}87.38%{transform:translateX(-8580px)}89.9%{transform:translateX(-8844px)}92.42%{transform:translateX(-8976px)}94.93%{transform:translateX(-9108px)}94.94%{transform:translateX(-9240px)}97.45%{transform:translateX(-9372px)}to{transform:translateX(-9504px)}}.a{fill:#282d35}.f,.g,.h,.i{fill:#b9bfca;white-space:pre}.g,.h,.i{fill:#6f7783}.h,.i{fill:#b9c0cb}.i{fill:#e88388;font-weight:700}</style><g class="container" font-size="1.67"><defs><symbol id="1"><text y="1.67" class="f">❱</text><text x="2.004" y="1.67" class="f">./guestfish</text><text x="14.028" y="1.67" class="f">--ro</text><text x="19.038" y="1.67" class="f">--add</text><text x="25.05" y="1.67" class="f">disk.img</text><a href="format:raw"><title>Displayed as link in supporting terminal emulators</title><text x="34.068" y="1.67" class="f">format:raw</text></a><text x="45.09" y="1.67" class="f">--mount</text><text x="53.106" y="1.67" class="f">/dev/sda:/</text><text x="64.128" y="1.67" class="f">&lt;&lt;COMMANDS</text></symbol><symbol id="2"><text y="1.67" class="f">ls</text><text x="3.006" y="1.67" class="f">/boot</text></symbol><symbol id="3"><text y="1.67" class="f">umount-all</text></symbol><symbol id="4"><text y="1.67" class="f">exit</text></symbol><symbol id="5"><text y="1.67" class="f">COMMANDS</text></symbol><symbol id="6"><text y="1.67" class="g">❱</text><text x="2.004" y="1.67" class="g">./guestfish</text><text x="14.028" y="1.67" class="g">--ro</text><text x="19.038" y="1.67" class="g">--add</text><text x="25.05" y="1.67" class="g">disk.img</text><a href="format:raw"><title>Displayed as link in supporting terminal emulators</title><text x="34.068" y="1.67" class="g">format:raw</text></a><text x="45.09" y="1.67" class="g">--mount</text><text x="53.106" y="1.67" class="g">/dev/sda:/</text><text x="64.128" y="1.67" class="g">&lt;&lt;COMMANDS</text></symbol><symbol id="7"><text y="1.67" class="g">ls</text><text x="3.006" y="1.67" class="g">/boot</text></symbol><symbol id="8"><text y="1.67" class="g">umount-all</text></symbol><symbol id="9"><text y="1.67" class="g">exit</text></symbol><symbol id="10"><text y="1.67" class="g">COMMANDS</text></symbol><symbol id="11"><text x="1.002" y="1.67" class="h">⚙</text><text x="3.006" y="1.67" class="h">updating</text><text x="12.024" y="1.67" class="h">timezone</text><text x="21.042" y="1.67" class="h">to</text><text x="24.048" y="1.67" class="h">UTC</text></symbol><symbol id="12"><text x="1.002" y="1.67" class="h">✔</text><text x="3.006" y="1.67" class="h">updating</text><text x="12.024" y="1.67" class="h">timezone</text><text x="21.042" y="1.67" class="h">to</text><text x="24.048" y="1.67" class="h">UTC</text></symbol><symbol id="13"><text x="1.002" y="1.67" class="h">⚙</text><text x="3.006" y="1.67" class="h">updating</text><text x="12.024" y="1.67" class="h">ID</text><text x="15.03" y="1.67" class="h">of</text><text x="18.036" y="1.67" class="h">group</text><text x="24.048" y="1.67" class="h">libguestfs</text><text x="35.07" y="1.67" class="h">to</text><text x="38.076" y="1.67" class="h">123</text></symbol><symbol id="14"><text x="1.002" y="1.67" class="h">✔</text><text x="3.006" y="1.67" class="h">updating</text><text x="12.024" y="1.67" class="h">ID</text><text x="15.03" y="1.67" class="h">of</text><text x="18.036" y="1.67" class="h">group</text><text x="24.048" y="1.67" class="h">libguestfs</text><text x="35.07" y="1.67" class="h">to</text><text x="38.076" y="1.67" class="h">123</text></symbol><symbol id="15"><text x="1.002" y="1.67" class="h">⚙</text><text x="3.006" y="1.67" class="h">updating</text><text x="12.024" y="1.67" class="h">ID</text><text x="15.03" y="1.67" class="h">of</text><text x="18.036" y="1.67" class="h">user</text><text x="23.046" y="1.67" class="h">libguestfs</text><text x="34.068" y="1.67" class="h">to</text><text x="37.074" y="1.67" class="h">1001</text></symbol><symbol id="16"><text x="1.002" y="1.67" class="h">✔</text><text x="3.006" y="1.67" class="h">updating</text><text x="12.024" y="1.67" class="h">ID</text><text x="15.03" y="1.67" class="h">of</text><text x="18.036" y="1.67" class="h">user</text><text x="23.046" y="1.67" class="h">libguestfs</text><text x="34.068" y="1.67" class="h">to</text><text x="37.074" y="1.67" class="h">1001</text></symbol><symbol id="17"><text x="1.002" y="1.67" class="h">⚙</text><text x="3.006" y="1.67" class="h">fixing</text><text x="10.02" y="1.67" class="h">permissions</text><text x="22.044" y="1.67" class="h">of</text><text x="25.05" y="1.67" class="h">stdout</text><text x="32.064" y="1.67" class="h">and</text><text x="36.072" y="1.67" class="h">stderr</text></symbol><symbol id="18"><text x="1.002" y="1.67" class="h">✔</text><text x="3.006" y="1.67" class="h">fixing</text><text x="10.02" y="1.67" class="h">permissions</text><text x="22.044" y="1.67" class="h">of</text><text x="25.05" y="1.67" class="h">stdout</text><text x="32.064" y="1.67" class="h">and</text><text x="36.072" y="1.67" class="h">stderr</text></symbol><symbol id="19"><text x="1.002" y="1.67" class="h">⚙</text><text x="3.006" y="1.67" class="h">fixing</text><text x="10.02" y="1.67" class="h">permissions</text><text x="22.044" y="1.67" class="h">of</text><text x="25.05" y="1.67" class="h">home</text><text x="30.06" y="1.67" class="h">directory</text><text x="40.08" y="1.67" class="h">for</text><text x="44.088" y="1.67" class="h">libguestfs</text></symbol><symbol id="20"><text x="1.002" y="1.67" class="h">✔</text><text x="3.006" y="1.67" class="h">fixing</text><text x="10.02" y="1.67" class="h">permissions</text><text x="22.044" y="1.67" class="h">of</text><text x="25.05" y="1.67" class="h">home</text><text x="30.06" y="1.67" class="h">directory</text><text x="40.08" y="1.67" class="h">for</text><text x="44.088" y="1.67" class="h">libguestfs</text></symbol><symbol id="21"><text x="1.002" y="1.67" class="h">⚙</text><text x="3.006" y="1.67" class="h">fixing</text><text x="10.02" y="1.67" class="h">permissions</text><text x="22.044" y="1.67" class="h">of</text><text x="25.05" y="1.67" class="h">.ssh</text><text x="30.06" y="1.67" class="h">directory</text><text x="40.08" y="1.67" class="h">for</text><text x="44.088" y="1.67" class="h">libguestfs</text></symbol><symbol id="22"><text x="1.002" y="1.67" class="h">✔</text><text x="3.006" y="1.67" class="h">fixing</text><text x="10.02" y="1.67" class="h">permissions</text><text x="22.044" y="1.67" class="h">of</text><text x="25.05" y="1.67" class="h">.ssh</text><text x="30.06" y="1.67" class="h">directory</text><text x="40.08" y="1.67" class="h">for</text><text x="44.088" y="1.67" class="h">libguestfs</text></symbol><symbol id="23"><text x="1.002" y="1.67" class="h">⚙</text><text x="3.006" y="1.67" class="h">fixing</text><text x="10.02" y="1.67" class="h">permissions</text><text x="22.044" y="1.67" class="h">of</text><text x="25.05" y="1.67" class="h">/disk.img</text></symbol><symbol id="24"><text x="1.002" y="1.67" class="h">✔</text><text x="3.006" y="1.67" class="h">fixing</text><text x="10.02" y="1.67" class="h">permissions</text><text x="22.044" y="1.67" class="h">of</text><text x="25.05" y="1.67" class="h">/disk.img</text></symbol><symbol id="25"><text x="1.002" y="1.67" class="h">⚙</text><text x="3.006" y="1.67" class="h">fixing</text><text x="10.02" y="1.67" class="h">permissions</text><text x="22.044" y="1.67" class="h">of</text><text x="25.05" y="1.67" class="h">/boot/vmlinuz*</text></symbol><symbol id="26"><text x="1.002" y="1.67" class="h">✔</text><text x="3.006" y="1.67" class="h">fixing</text><text x="10.02" y="1.67" class="h">permissions</text><text x="22.044" y="1.67" class="h">of</text><text x="25.05" y="1.67" class="h">/boot/vmlinuz*</text></symbol><symbol id="27"><text x="1.002" y="1.67" class="h">ℹ</text><text x="3.006" y="1.67" class="h">changing</text><text x="12.024" y="1.67" class="h">to</text><a href="libguestfs:libguestfs"><title>Displayed as link in supporting terminal emulators</title><text x="15.03" y="1.67" class="h">libguestfs:libguestfs</text></a></symbol><symbol id="28"><a href="format:raw:"><title>Displayed as link in supporting terminal emulators</title><text y="1.67" class="h">format:raw:</text></a><text x="12.024" y="1.67" class="h">unknown</text><text x="20.04" y="1.67" class="h">command</text></symbol><symbol id="29"><text y="1.67" class="h">Did</text><text x="4.008" y="1.67" class="h">you</text><text x="8.016" y="1.67" class="h">mean</text><text x="13.026" y="1.67" class="h">to</text><text x="16.032" y="1.67" class="h">open</text><text x="21.042" y="1.67" class="h">a</text><text x="23.046" y="1.67" class="h">disk</text><text x="28.056" y="1.67" class="h">image?</text><text x="36.072" y="1.67" class="h">guestfish</text><text x="46.092" y="1.67" class="h">-a</text><text x="49.098" y="1.67" class="h">disk.img</text></symbol><symbol id="30"><text y="1.67" class="h">For</text><text x="4.008" y="1.67" class="h">a</text><text x="6.012" y="1.67" class="h">list</text><text x="11.022" y="1.67" class="h">of</text><a href="commands:"><title>Displayed as link in supporting terminal emulators</title><text x="14.028" y="1.67" class="h">commands:</text></a><text x="36.072" y="1.67" class="h">guestfish</text><text x="46.092" y="1.67" class="h">-h</text></symbol><symbol id="31"><text y="1.67" class="h">For</text><text x="4.008" y="1.67" class="h">complete</text><a href="documentation:"><title>Displayed as link in supporting terminal emulators</title><text x="13.026" y="1.67" class="h">documentation:</text></a><text x="36.072" y="1.67" class="h">man</text><text x="40.08" y="1.67" class="h">guestfish</text><text x="128.256" y="1.67" class="i">↩</text><text x="130.26" y="1.67" class="i">1</text></symbol><symbol id="32"><text y="1.67" class="h">5</text></symbol><symbol id="33"><text y="1.67" class="h">4</text></symbol><symbol id="34"><text y="1.67" class="h">3</text></symbol><symbol id="35"><text y="1.67" class="h">2</text></symbol><symbol id="36"><text y="1.67" class="h">1</text></symbol><symbol id="a"><path fill="transparent" d="M0 0h132v26H0z"/></symbol><symbol id="b"><path fill="#6f7683" d="M0 0h1.102v2.171H0z"/></symbol></defs><path class="a" d="M0 0h132v54.275H0z"/><g style="animation-duration:19.959899s;animation-iteration-count:infinite;animation-name:l;animation-timing-function:steps(1,end)"><svg width="9636"><svg><use href="#a"/><use href="#b" x="-.004"/></svg><svg x="132"><use href="#a"/><use href="#b" x="-.004"/></svg><svg x="264"><use href="#a"/><use href="#b" x="1.996"/><text y="1.67" class="f">❱</text></svg><svg x="396"><use href="#a"/><use href="#b" x="13.996"/><text y="1.67" class="f">❱</text><text x="2.004" y="1.67" class="f">./guestfish</text></svg><svg x="528"><use href="#a"/><use href="#b" x="23.996"/><text y="1.67" class="f">❱</text><text x="2.004" y="1.67" class="f">./guestfish</text><text x="14.028" y="1.67" class="f">--ro</text><text x="19.038" y="1.67" class="f">--add</text></svg><svg x="660"><use href="#a"/><use href="#b" x="35.996"/><text y="1.67" class="f">❱</text><text x="2.004" y="1.67" class="f">./guestfish</text><text x="14.028" y="1.67" class="f">--ro</text><text x="19.038" y="1.67" class="f">--add</text><text x="25.05" y="1.67" class="f">disk.img</text><text x="34.068" y="1.67" class="f">fo</text></svg><svg x="792"><use href="#a"/><use href="#b" x="47.996"/><text y="1.67" class="f">❱</text><text x="2.004" y="1.67" class="f">./guestfish</text><text x="14.028" y="1.67" class="f">--ro</text><text x="19.038" y="1.67" class="f">--add</text><text x="25.05" y="1.67" class="f">disk.img</text><a href="format:raw"><title>Displayed as link in supporting terminal emulators</title><text x="34.068" y="1.67" class="f">format:raw</text></a><text x="45.09" y="1.67" class="f">--m</text></svg><svg x="924"><use href="#a"/><use href="#b" x="59.996"/><text y="1.67" class="f">❱</text><text x="2.004" y="1.67" class="f">./guestfish</text><text x="14.028" y="1.67" class="f">--ro</text><text x="19.038" y="1.67" class="f">--add</text><text x="25.05" y="1.67" class="f">disk.img</text><a href="format:raw"><title>Displayed as link in supporting terminal emulators</title><text x="34.068" y="1.67" class="f">format:raw</text></a><text x="45.09" y="1.67" class="f">--mount</text><text x="53.106" y="1.67" class="f">/dev/sd</text></svg><svg x="1056"><use href="#a"/><use href="#b" x="71.996"/><text y="1.67" class="f">❱</text><text x="2.004" y="1.67" class="f">./guestfish</text><text x="14.028" y="1.67" class="f">--ro</text><text x="19.038" y="1.67" class="f">--add</text><text x="25.05" y="1.67" class="f">disk.img</text><a href="format:raw"><title>Displayed as link in supporting terminal emulators</title><text x="34.068" y="1.67" class="f">format:raw</text></a><text x="45.09" y="1.67" class="f">--mount</text><text x="53.106" y="1.67" class="f">/dev/sda:/</text><text x="64.128" y="1.67" class="f">&lt;&lt;COMMAN</text></svg><svg x="1188"><use href="#a"/><use href="#b" x="1.996" y="4.317"/><use href="#1"/><use href="#2" y="2.171"/><text y="6.012" class="f">um</text></svg><svg x="1320"><use href="#a"/><use href="#b" x=".996" y="6.488"/><use href="#1"/><use href="#2" y="2.171"/><use href="#3" y="4.342"/><text y="8.183" class="f">e</text></svg><svg x="1452"><use href="#a"/><use href="#b" x="5.996" y="8.659"/><use href="#1"/><use href="#2" y="2.171"/><use href="#3" y="4.342"/><use href="#4" y="6.513"/><text y="10.354" class="f">COMMAN</text></svg><svg x="1584"><use href="#a"/><use href="#b" x="7.996" y="8.659"/><use href="#1"/><use href="#2" y="2.171"/><use href="#3" y="4.342"/><use href="#4" y="6.513"/><use href="#5" y="8.684"/></svg><svg x="1716"><use href="#a"/><use href="#1"/><use href="#2" y="2.171"/><use href="#3" y="4.342"/><use href="#4" y="6.513"/><use href="#5" y="8.684"/></svg><svg x="1848"><use href="#a"/><use href="#b" x="7.996" y="8.659"/><use href="#1"/><use href="#2" y="2.171"/><use href="#3" y="4.342"/><use href="#4" y="6.513"/><use href="#5" y="8.684"/></svg><svg x="1980"><use href="#a"/><use href="#b" x="73.996" y="8.659"/><use href="#1"/><use href="#2" y="2.171"/><use href="#3" y="4.342"/><use href="#4" y="6.513"/><use href="#6" y="8.684"/></svg><svg x="2112"><use href="#a"/><use href="#b" x="7.996" y="17.343"/><use href="#1"/><use href="#2" y="2.171"/><use href="#3" y="4.342"/><use href="#4" y="6.513"/><use href="#6" y="8.684"/><use href="#7" y="10.855"/><use href="#8" y="13.026"/><use href="#9" y="15.197"/><use href="#10" y="17.368"/></svg><svg x="2244"><use href="#a"/><use href="#b" x="-.004" y="19.514"/><use href="#1"/><use href="#2" y="2.171"/><use href="#3" y="4.342"/><use href="#4" y="6.513"/><use href="#6" y="8.684"/><use href="#7" y="10.855"/><use href="#8" y="13.026"/><use href="#9" y="15.197"/><use href="#10" y="17.368"/></svg><svg x="2376"><use href="#a"/><use href="#1"/><use href="#2" y="2.171"/><use href="#3" y="4.342"/><use href="#4" y="6.513"/><use href="#6" y="8.684"/><use href="#7" y="10.855"/><use href="#8" y="13.026"/><use href="#9" y="15.197"/><use href="#10" y="17.368"/></svg><svg x="2508"><use href="#a"/><use href="#1"/><use href="#2" y="2.171"/><use href="#3" y="4.342"/><use href="#4" y="6.513"/><use href="#6" y="8.684"/><use href="#7" y="10.855"/><use href="#8" y="13.026"/><use href="#9" y="15.197"/><use href="#10" y="17.368"/><use href="#11" y="19.539"/></svg><svg x="2640"><use href="#a"/><use href="#1"/><use href="#2" y="2.171"/><use href="#3" y="4.342"/><use href="#4" y="6.513"/><use href="#6" y="8.684"/><use href="#7" y="10.855"/><use href="#8" y="13.026"/><use href="#9" y="15.197"/><use href="#10" y="17.368"/><use href="#11" y="19.539"/></svg><svg x="2772"><use href="#a"/><use href="#1"/><use href="#2" y="2.171"/><use href="#3" y="4.342"/><use href="#4" y="6.513"/><use href="#6" y="8.684"/><use href="#7" y="10.855"/><use href="#8" y="13.026"/><use href="#9" y="15.197"/><use href="#10" y="17.368"/><use href="#11" y="19.539"/><use href="#12" y="21.71"/></svg><svg x="2904"><use href="#a"/><use href="#1"/><use href="#2" y="2.171"/><use href="#3" y="4.342"/><use href="#4" y="6.513"/><use href="#6" y="8.684"/><use href="#7" y="10.855"/><use href="#8" y="13.026"/><use href="#9" y="15.197"/><use href="#10" y="17.368"/><use href="#11" y="19.539"/><use href="#12" y="21.71"/></svg><svg x="3036"><use href="#a"/><use href="#1"/><use href="#2" y="2.171"/><use href="#3" y="4.342"/><use href="#4" y="6.513"/><use href="#6" y="8.684"/><use href="#7" y="10.855"/><use href="#8" y="13.026"/><use href="#9" y="15.197"/><use href="#10" y="17.368"/><use href="#11" y="19.539"/><use href="#12" y="21.71"/><use href="#13" y="23.881"/></svg><svg x="3168"><use href="#a"/><use href="#1"/><use href="#2" y="2.171"/><use href="#3" y="4.342"/><use href="#4" y="6.513"/><use href="#6" y="8.684"/><use href="#7" y="10.855"/><use href="#8" y="13.026"/><use href="#9" y="15.197"/><use href="#10" y="17.368"/><use href="#11" y="19.539"/><use href="#12" y="21.71"/><use href="#13" y="23.881"/></svg><svg x="3300"><use href="#a"/><use href="#1"/><use href="#2" y="2.171"/><use href="#3" y="4.342"/><use href="#4" y="6.513"/><use href="#6" y="8.684"/><use href="#7" y="10.855"/><use href="#8" y="13.026"/><use href="#9" y="15.197"/><use href="#10" y="17.368"/><use href="#11" y="19.539"/><use href="#12" y="21.71"/><use href="#13" y="23.881"/><use href="#14" y="26.052"/></svg><svg x="3432"><use href="#a"/><use href="#1"/><use href="#2" y="2.171"/><use href="#3" y="4.342"/><use href="#4" y="6.513"/><use href="#6" y="8.684"/><use href="#7" y="10.855"/><use href="#8" y="13.026"/><use href="#9" y="15.197"/><use href="#10" y="17.368"/><use href="#11" y="19.539"/><use href="#12" y="21.71"/><use href="#13" y="23.881"/><use href="#14" y="26.052"/></svg><svg x="3564"><use href="#a"/><use href="#1"/><use href="#2" y="2.171"/><use href="#3" y="4.342"/><use href="#4" y="6.513"/><use href="#6" y="8.684"/><use href="#7" y="10.855"/><use href="#8" y="13.026"/><use href="#9" y="15.197"/><use href="#10" y="17.368"/><use href="#11" y="19.539"/><use href="#12" y="21.71"/><use href="#13" y="23.881"/><use href="#14" y="26.052"/><use href="#15" y="28.223"/></svg><svg x="3696"><use href="#a"/><use href="#1"/><use href="#2" y="2.171"/><use href="#3" y="4.342"/><use href="#4" y="6.513"/><use href="#6" y="8.684"/><use href="#7" y="10.855"/><use href="#8" y="13.026"/><use href="#9" y="15.197"/><use href="#10" y="17.368"/><use href="#11" y="19.539"/><use href="#12" y="21.71"/><use href="#13" y="23.881"/><use href="#14" y="26.052"/><use href="#15" y="28.223"/></svg><svg x="3828"><use href="#a"/><use href="#1"/><use href="#2" y="2.171"/><use href="#3" y="4.342"/><use href="#4" y="6.513"/><use href="#6" y="8.684"/><use href="#7" y="10.855"/><use href="#8" y="13.026"/><use href="#9" y="15.197"/><use href="#10" y="17.368"/><use href="#11" y="19.539"/><use href="#12" y="21.71"/><use href="#13" y="23.881"/><use href="#14" y="26.052"/><use href="#15" y="28.223"/><use href="#16" y="30.394"/></svg><svg x="3960"><use href="#a"/><use href="#1"/><use href="#2" y="2.171"/><use href="#3" y="4.342"/><use href="#4" y="6.513"/><use href="#6" y="8.684"/><use href="#7" y="10.855"/><use href="#8" y="13.026"/><use href="#9" y="15.197"/><use href="#10" y="17.368"/><use href="#11" y="19.539"/><use href="#12" y="21.71"/><use href="#13" y="23.881"/><use href="#14" y="26.052"/><use href="#15" y="28.223"/><use href="#16" y="30.394"/></svg><svg x="4092"><use href="#a"/><use href="#1"/><use href="#2" y="2.171"/><use href="#3" y="4.342"/><use href="#4" y="6.513"/><use href="#6" y="8.684"/><use href="#7" y="10.855"/><use href="#8" y="13.026"/><use href="#9" y="15.197"/><use href="#10" y="17.368"/><use href="#11" y="19.539"/><use href="#12" y="21.71"/><use href="#13" y="23.881"/><use href="#14" y="26.052"/><use href="#15" y="28.223"/><use href="#16" y="30.394"/><use href="#17" y="32.565"/></svg><svg x="4224"><use href="#a"/><use href="#1"/><use href="#2" y="2.171"/><use href="#3" y="4.342"/><use href="#4" y="6.513"/><use href="#6" y="8.684"/><use href="#7" y="10.855"/><use href="#8" y="13.026"/><use href="#9" y="15.197"/><use href="#10" y="17.368"/><use href="#11" y="19.539"/><use href="#12" y="21.71"/><use href="#13" y="23.881"/><use href="#14" y="26.052"/><use href="#15" y="28.223"/><use href="#16" y="30.394"/><use href="#17" y="32.565"/></svg><svg x="4356"><use href="#a"/><use href="#1"/><use href="#2" y="2.171"/><use href="#3" y="4.342"/><use href="#4" y="6.513"/><use href="#6" y="8.684"/><use href="#7" y="10.855"/><use href="#8" y="13.026"/><use href="#9" y="15.197"/><use href="#10" y="17.368"/><use href="#11" y="19.539"/><use href="#12" y="21.71"/><use href="#13" y="23.881"/><use href="#14" y="26.052"/><use href="#15" y="28.223"/><use href="#16" y="30.394"/><use href="#17" y="32.565"/><use href="#18" y="34.736"/></svg><svg x="4488"><use href="#a"/><use href="#1"/><use href="#2" y="2.171"/><use href="#3" y="4.342"/><use href="#4" y="6.513"/><use href="#6" y="8.684"/><use href="#7" y="10.855"/><use href="#8" y="13.026"/><use href="#9" y="15.197"/><use href="#10" y="17.368"/><use href="#11" y="19.539"/><use href="#12" y="21.71"/><use href="#13" y="23.881"/><use href="#14" y="26.052"/><use href="#15" y="28.223"/><use href="#16" y="30.394"/><use href="#17" y="32.565"/><use href="#18" y="34.736"/></svg><svg x="4620"><use href="#a"/><use href="#1"/><use href="#2" y="2.171"/><use href="#3" y="4.342"/><use href="#4" y="6.513"/><use href="#6" y="8.684"/><use href="#7" y="10.855"/><use href="#8" y="13.026"/><use href="#9" y="15.197"/><use href="#10" y="17.368"/><use href="#11" y="19.539"/><use href="#12" y="21.71"/><use href="#13" y="23.881"/><use href="#14" y="26.052"/><use href="#15" y="28.223"/><use href="#16" y="30.394"/><use href="#17" y="32.565"/><use href="#18" y="34.736"/><use href="#19" y="36.907"/></svg><svg x="4752"><use href="#a"/><use href="#1"/><use href="#2" y="2.171"/><use href="#3" y="4.342"/><use href="#4" y="6.513"/><use href="#6" y="8.684"/><use href="#7" y="10.855"/><use href="#8" y="13.026"/><use href="#9" y="15.197"/><use href="#10" y="17.368"/><use href="#11" y="19.539"/><use href="#12" y="21.71"/><use href="#13" y="23.881"/><use href="#14" y="26.052"/><use href="#15" y="28.223"/><use href="#16" y="30.394"/><use href="#17" y="32.565"/><use href="#18" y="34.736"/><use href="#19" y="36.907"/></svg><svg x="4884"><use href="#a"/><use href="#1"/><use href="#2" y="2.171"/><use href="#3" y="4.342"/><use href="#4" y="6.513"/><use href="#6" y="8.684"/><use href="#7" y="10.855"/><use href="#8" y="13.026"/><use href="#9" y="15.197"/><use href="#10" y="17.368"/><use href="#11" y="19.539"/><use href="#12" y="21.71"/><use href="#13" y="23.881"/><use href="#14" y="26.052"/><use href="#15" y="28.223"/><use href="#16" y="30.394"/><use href="#17" y="32.565"/><use href="#18" y="34.736"/><use href="#19" y="36.907"/><use href="#20" y="39.078"/></svg><svg x="5016"><use href="#a"/><use href="#1"/><use href="#2" y="2.171"/><use href="#3" y="4.342"/><use href="#4" y="6.513"/><use href="#6" y="8.684"/><use href="#7" y="10.855"/><use href="#8" y="13.026"/><use href="#9" y="15.197"/><use href="#10" y="17.368"/><use href="#11" y="19.539"/><use href="#12" y="21.71"/><use href="#13" y="23.881"/><use href="#14" y="26.052"/><use href="#15" y="28.223"/><use href="#16" y="30.394"/><use href="#17" y="32.565"/><use href="#18" y="34.736"/><use href="#19" y="36.907"/><use href="#20" y="39.078"/></svg><svg x="5148"><use href="#a"/><use href="#1"/><use href="#2" y="2.171"/><use href="#3" y="4.342"/><use href="#4" y="6.513"/><use href="#6" y="8.684"/><use href="#7" y="10.855"/><use href="#8" y="13.026"/><use href="#9" y="15.197"/><use href="#10" y="17.368"/><use href="#11" y="19.539"/><use href="#12" y="21.71"/><use href="#13" y="23.881"/><use href="#14" y="26.052"/><use href="#15" y="28.223"/><use href="#16" y="30.394"/><use href="#17" y="32.565"/><use href="#18" y="34.736"/><use href="#19" y="36.907"/><use href="#20" y="39.078"/><use href="#21" y="41.249"/></svg><svg x="5280"><use href="#a"/><use href="#1"/><use href="#2" y="2.171"/><use href="#3" y="4.342"/><use href="#4" y="6.513"/><use href="#6" y="8.684"/><use href="#7" y="10.855"/><use href="#8" y="13.026"/><use href="#9" y="15.197"/><use href="#10" y="17.368"/><use href="#11" y="19.539"/><use href="#12" y="21.71"/><use href="#13" y="23.881"/><use href="#14" y="26.052"/><use href="#15" y="28.223"/><use href="#16" y="30.394"/><use href="#17" y="32.565"/><use href="#18" y="34.736"/><use href="#19" y="36.907"/><use href="#20" y="39.078"/><use href="#21" y="41.249"/></svg><svg x="5412"><use href="#a"/><use href="#1"/><use href="#2" y="2.171"/><use href="#3" y="4.342"/><use href="#4" y="6.513"/><use href="#6" y="8.684"/><use href="#7" y="10.855"/><use href="#8" y="13.026"/><use href="#9" y="15.197"/><use href="#10" y="17.368"/><use href="#11" y="19.539"/><use href="#12" y="21.71"/><use href="#13" y="23.881"/><use href="#14" y="26.052"/><use href="#15" y="28.223"/><use href="#16" y="30.394"/><use href="#17" y="32.565"/><use href="#18" y="34.736"/><use href="#19" y="36.907"/><use href="#20" y="39.078"/><use href="#21" y="41.249"/><use href="#22" y="43.42"/></svg><svg x="5544"><use href="#a"/><use href="#1"/><use href="#2" y="2.171"/><use href="#3" y="4.342"/><use href="#4" y="6.513"/><use href="#6" y="8.684"/><use href="#7" y="10.855"/><use href="#8" y="13.026"/><use href="#9" y="15.197"/><use href="#10" y="17.368"/><use href="#11" y="19.539"/><use href="#12" y="21.71"/><use href="#13" y="23.881"/><use href="#14" y="26.052"/><use href="#15" y="28.223"/><use href="#16" y="30.394"/><use href="#17" y="32.565"/><use href="#18" y="34.736"/><use href="#19" y="36.907"/><use href="#20" y="39.078"/><use href="#21" y="41.249"/><use href="#22" y="43.42"/></svg><svg x="5676"><use href="#a"/><use href="#1"/><use href="#2" y="2.171"/><use href="#3" y="4.342"/><use href="#4" y="6.513"/><use href="#6" y="8.684"/><use href="#7" y="10.855"/><use href="#8" y="13.026"/><use href="#9" y="15.197"/><use href="#10" y="17.368"/><use href="#11" y="19.539"/><use href="#12" y="21.71"/><use href="#13" y="23.881"/><use href="#14" y="26.052"/><use href="#15" y="28.223"/><use href="#16" y="30.394"/><use href="#17" y="32.565"/><use href="#18" y="34.736"/><use href="#19" y="36.907"/><use href="#20" y="39.078"/><use href="#21" y="41.249"/><use href="#22" y="43.42"/><use href="#23" y="45.591"/></svg><svg x="5808"><use href="#a"/><use href="#1"/><use href="#2" y="2.171"/><use href="#3" y="4.342"/><use href="#4" y="6.513"/><use href="#6" y="8.684"/><use href="#7" y="10.855"/><use href="#8" y="13.026"/><use href="#9" y="15.197"/><use href="#10" y="17.368"/><use href="#11" y="19.539"/><use href="#12" y="21.71"/><use href="#13" y="23.881"/><use href="#14" y="26.052"/><use href="#15" y="28.223"/><use href="#16" y="30.394"/><use href="#17" y="32.565"/><use href="#18" y="34.736"/><use href="#19" y="36.907"/><use href="#20" y="39.078"/><use href="#21" y="41.249"/><use href="#22" y="43.42"/><use href="#23" y="45.591"/></svg><svg x="5940"><use href="#a"/><use href="#1"/><use href="#2" y="2.171"/><use href="#3" y="4.342"/><use href="#4" y="6.513"/><use href="#6" y="8.684"/><use href="#7" y="10.855"/><use href="#8" y="13.026"/><use href="#9" y="15.197"/><use href="#10" y="17.368"/><use href="#11" y="19.539"/><use href="#12" y="21.71"/><use href="#13" y="23.881"/><use href="#14" y="26.052"/><use href="#15" y="28.223"/><use href="#16" y="30.394"/><use href="#17" y="32.565"/><use href="#18" y="34.736"/><use href="#19" y="36.907"/><use href="#20" y="39.078"/><use href="#21" y="41.249"/><use href="#22" y="43.42"/><use href="#23" y="45.591"/><use href="#24" y="47.762"/></svg><svg x="6072"><use href="#a"/><use href="#1"/><use href="#2" y="2.171"/><use href="#3" y="4.342"/><use href="#4" y="6.513"/><use href="#6" y="8.684"/><use href="#7" y="10.855"/><use href="#8" y="13.026"/><use href="#9" y="15.197"/><use href="#10" y="17.368"/><use href="#11" y="19.539"/><use href="#12" y="21.71"/><use href="#13" y="23.881"/><use href="#14" y="26.052"/><use href="#15" y="28.223"/><use href="#16" y="30.394"/><use href="#17" y="32.565"/><use href="#18" y="34.736"/><use href="#19" y="36.907"/><use href="#20" y="39.078"/><use href="#21" y="41.249"/><use href="#22" y="43.42"/><use href="#23" y="45.591"/><use href="#24" y="47.762"/></svg><svg x="6204"><use href="#a"/><use href="#1"/><use href="#2" y="2.171"/><use href="#3" y="4.342"/><use href="#4" y="6.513"/><use href="#6" y="8.684"/><use href="#7" y="10.855"/><use href="#8" y="13.026"/><use href="#9" y="15.197"/><use href="#10" y="17.368"/><use href="#11" y="19.539"/><use href="#12" y="21.71"/><use href="#13" y="23.881"/><use href="#14" y="26.052"/><use href="#15" y="28.223"/><use href="#16" y="30.394"/><use href="#17" y="32.565"/><use href="#18" y="34.736"/><use href="#19" y="36.907"/><use href="#20" y="39.078"/><use href="#21" y="41.249"/><use href="#22" y="43.42"/><use href="#23" y="45.591"/><use href="#24" y="47.762"/><use href="#25" y="49.933"/></svg><svg x="6336"><use href="#a"/><use href="#1"/><use href="#2" y="2.171"/><use href="#3" y="4.342"/><use href="#4" y="6.513"/><use href="#6" y="8.684"/><use href="#7" y="10.855"/><use href="#8" y="13.026"/><use href="#9" y="15.197"/><use href="#10" y="17.368"/><use href="#11" y="19.539"/><use href="#12" y="21.71"/><use href="#13" y="23.881"/><use href="#14" y="26.052"/><use href="#15" y="28.223"/><use href="#16" y="30.394"/><use href="#17" y="32.565"/><use href="#18" y="34.736"/><use href="#19" y="36.907"/><use href="#20" y="39.078"/><use href="#21" y="41.249"/><use href="#22" y="43.42"/><use href="#23" y="45.591"/><use href="#24" y="47.762"/><use href="#25" y="49.933"/></svg><svg x="6468"><use href="#a"/><use href="#1"/><use href="#2" y="2.171"/><use href="#3" y="4.342"/><use href="#4" y="6.513"/><use href="#6" y="8.684"/><use href="#7" y="10.855"/><use href="#8" y="13.026"/><use href="#9" y="15.197"/><use href="#10" y="17.368"/><use href="#11" y="19.539"/><use href="#12" y="21.71"/><use href="#13" y="23.881"/><use href="#14" y="26.052"/><use href="#15" y="28.223"/><use href="#16" y="30.394"/><use href="#17" y="32.565"/><use href="#18" y="34.736"/><use href="#19" y="36.907"/><use href="#20" y="39.078"/><use href="#21" y="41.249"/><use href="#22" y="43.42"/><use href="#23" y="45.591"/><use href="#24" y="47.762"/><use href="#25" y="49.933"/><use href="#26" y="52.104"/></svg><svg x="6600"><use href="#a"/><use href="#1"/><use href="#2" y="2.171"/><use href="#3" y="4.342"/><use href="#4" y="6.513"/><use href="#6" y="8.684"/><use href="#7" y="10.855"/><use href="#8" y="13.026"/><use href="#9" y="15.197"/><use href="#10" y="17.368"/><use href="#11" y="19.539"/><use href="#12" y="21.71"/><use href="#13" y="23.881"/><use href="#14" y="26.052"/><use href="#15" y="28.223"/><use href="#16" y="30.394"/><use href="#17" y="32.565"/><use href="#18" y="34.736"/><use href="#19" y="36.907"/><use href="#20" y="39.078"/><use href="#21" y="41.249"/><use href="#22" y="43.42"/><use href="#23" y="45.591"/><use href="#24" y="47.762"/><use href="#25" y="49.933"/><use href="#26" y="52.104"/></svg><svg x="6732"><use href="#a"/><use href="#1"/><use href="#2" y="2.171"/><use href="#3" y="4.342"/><use href="#4" y="6.513"/><use href="#6" y="8.684"/><use href="#7" y="10.855"/><use href="#8" y="13.026"/><use href="#9" y="15.197"/><use href="#10" y="17.368"/><use href="#11" y="19.539"/><use href="#12" y="21.71"/><use href="#13" y="23.881"/><use href="#14" y="26.052"/><use href="#15" y="28.223"/><use href="#16" y="30.394"/><use href="#17" y="32.565"/><use href="#18" y="34.736"/><use href="#19" y="36.907"/><use href="#20" y="39.078"/><use href="#21" y="41.249"/><use href="#22" y="43.42"/><use href="#23" y="45.591"/><use href="#24" y="47.762"/><use href="#25" y="49.933"/><use href="#26" y="52.104"/><use href="#27" y="54.275"/></svg><svg x="6864"><use href="#a"/><use href="#2"/><use href="#3" y="2.171"/><use href="#4" y="4.342"/><use href="#6" y="6.513"/><use href="#7" y="8.684"/><use href="#8" y="10.855"/><use href="#9" y="13.026"/><use href="#10" y="15.197"/><use href="#11" y="17.368"/><use href="#12" y="19.539"/><use href="#13" y="21.71"/><use href="#14" y="23.881"/><use href="#15" y="26.052"/><use href="#16" y="28.223"/><use href="#17" y="30.394"/><use href="#18" y="32.565"/><use href="#19" y="34.736"/><use href="#20" y="36.907"/><use href="#21" y="39.078"/><use href="#22" y="41.249"/><use href="#23" y="43.42"/><use href="#24" y="45.591"/><use href="#25" y="47.762"/><use href="#26" y="49.933"/><use href="#27" y="52.104"/></svg><svg x="6996"><use href="#a"/><use href="#2"/><use href="#3" y="2.171"/><use href="#4" y="4.342"/><use href="#6" y="6.513"/><use href="#7" y="8.684"/><use href="#8" y="10.855"/><use href="#9" y="13.026"/><use href="#10" y="15.197"/><use href="#11" y="17.368"/><use href="#12" y="19.539"/><use href="#13" y="21.71"/><use href="#14" y="23.881"/><use href="#15" y="26.052"/><use href="#16" y="28.223"/><use href="#17" y="30.394"/><use href="#18" y="32.565"/><use href="#19" y="34.736"/><use href="#20" y="36.907"/><use href="#21" y="39.078"/><use href="#22" y="41.249"/><use href="#23" y="43.42"/><use href="#24" y="45.591"/><use href="#25" y="47.762"/><use href="#26" y="49.933"/><use href="#27" y="52.104"/><use href="#28" y="54.275"/></svg><svg x="7128"><use href="#a"/><use href="#7"/><use href="#8" y="2.171"/><use href="#9" y="4.342"/><use href="#10" y="6.513"/><use href="#11" y="8.684"/><use href="#12" y="10.855"/><use href="#13" y="13.026"/><use href="#14" y="15.197"/><use href="#15" y="17.368"/><use href="#16" y="19.539"/><use href="#17" y="21.71"/><use href="#18" y="23.881"/><use href="#19" y="26.052"/><use href="#20" y="28.223"/><use href="#21" y="30.394"/><use href="#22" y="32.565"/><use href="#23" y="34.736"/><use href="#24" y="36.907"/><use href="#25" y="39.078"/><use href="#26" y="41.249"/><use href="#27" y="43.42"/><use href="#28" y="45.591"/><use href="#29" y="47.762"/><use href="#30" y="49.933"/><text y="53.774" class="h">For</text><text x="4.008" y="53.774" class="h">complete</text><a href="documentation:"><title>Displayed as link in supporting terminal emulators</title><text x="13.026" y="53.774" class="h">documentation:</text></a><text x="36.072" y="53.774" class="h">man</text><text x="40.08" y="53.774" class="h">guestfish</text></svg><svg x="7260"><use href="#a"/><use href="#8"/><use href="#9" y="2.171"/><use href="#10" y="4.342"/><use href="#11" y="6.513"/><use href="#12" y="8.684"/><use href="#13" y="10.855"/><use href="#14" y="13.026"/><use href="#15" y="15.197"/><use href="#16" y="17.368"/><use href="#17" y="19.539"/><use href="#18" y="21.71"/><use href="#19" y="23.881"/><use href="#20" y="26.052"/><use href="#21" y="28.223"/><use href="#22" y="30.394"/><use href="#23" y="32.565"/><use href="#24" y="34.736"/><use href="#25" y="36.907"/><use href="#26" y="39.078"/><use href="#27" y="41.249"/><use href="#28" y="43.42"/><use href="#29" y="45.591"/><use href="#30" y="47.762"/><use href="#31" y="49.933"/></svg><svg x="7392"><use href="#a"/><use href="#9"/><use href="#10" y="2.171"/><use href="#11" y="4.342"/><use href="#12" y="6.513"/><use href="#13" y="8.684"/><use href="#14" y="10.855"/><use href="#15" y="13.026"/><use href="#16" y="15.197"/><use href="#17" y="17.368"/><use href="#18" y="19.539"/><use href="#19" y="21.71"/><use href="#20" y="23.881"/><use href="#21" y="26.052"/><use href="#22" y="28.223"/><use href="#23" y="30.394"/><use href="#24" y="32.565"/><use href="#25" y="34.736"/><use href="#26" y="36.907"/><use href="#27" y="39.078"/><use href="#28" y="41.249"/><use href="#29" y="43.42"/><use href="#30" y="45.591"/><use href="#31" y="47.762"/></svg><svg x="7524"><use href="#a"/><use href="#9"/><use href="#10" y="2.171"/><use href="#11" y="4.342"/><use href="#12" y="6.513"/><use href="#13" y="8.684"/><use href="#14" y="10.855"/><use href="#15" y="13.026"/><use href="#16" y="15.197"/><use href="#17" y="17.368"/><use href="#18" y="19.539"/><use href="#19" y="21.71"/><use href="#20" y="23.881"/><use href="#21" y="26.052"/><use href="#22" y="28.223"/><use href="#23" y="30.394"/><use href="#24" y="32.565"/><use href="#25" y="34.736"/><use href="#26" y="36.907"/><use href="#27" y="39.078"/><use href="#28" y="41.249"/><use href="#29" y="43.42"/><use href="#30" y="45.591"/><use href="#31" y="47.762"/></svg><svg x="7656"><use href="#a"/><use href="#9"/><use href="#10" y="2.171"/><use href="#11" y="4.342"/><use href="#12" y="6.513"/><use href="#13" y="8.684"/><use href="#14" y="10.855"/><use href="#15" y="13.026"/><use href="#16" y="15.197"/><use href="#17" y="17.368"/><use href="#18" y="19.539"/><use href="#19" y="21.71"/><use href="#20" y="23.881"/><use href="#21" y="26.052"/><use href="#22" y="28.223"/><use href="#23" y="30.394"/><use href="#24" y="32.565"/><use href="#25" y="34.736"/><use href="#26" y="36.907"/><use href="#27" y="39.078"/><use href="#28" y="41.249"/><use href="#29" y="43.42"/><use href="#30" y="45.591"/><use href="#31" y="47.762"/><use href="#32" y="54.275"/></svg><svg x="7788"><use href="#a"/><use href="#b" x="-.004" y="54.25"/><use href="#9"/><use href="#10" y="2.171"/><use href="#11" y="4.342"/><use href="#12" y="6.513"/><use href="#13" y="8.684"/><use href="#14" y="10.855"/><use href="#15" y="13.026"/><use href="#16" y="15.197"/><use href="#17" y="17.368"/><use href="#18" y="19.539"/><use href="#19" y="21.71"/><use href="#20" y="23.881"/><use href="#21" y="26.052"/><use href="#22" y="28.223"/><use href="#23" y="30.394"/><use href="#24" y="32.565"/><use href="#25" y="34.736"/><use href="#26" y="36.907"/><use href="#27" y="39.078"/><use href="#28" y="41.249"/><use href="#29" y="43.42"/><use href="#30" y="45.591"/><use href="#31" y="47.762"/><use href="#32" y="54.275"/></svg><svg x="7920"><use href="#a"/><use href="#9"/><use href="#10" y="2.171"/><use href="#11" y="4.342"/><use href="#12" y="6.513"/><use href="#13" y="8.684"/><use href="#14" y="10.855"/><use href="#15" y="13.026"/><use href="#16" y="15.197"/><use href="#17" y="17.368"/><use href="#18" y="19.539"/><use href="#19" y="21.71"/><use href="#20" y="23.881"/><use href="#21" y="26.052"/><use href="#22" y="28.223"/><use href="#23" y="30.394"/><use href="#24" y="32.565"/><use href="#25" y="34.736"/><use href="#26" y="36.907"/><use href="#27" y="39.078"/><use href="#28" y="41.249"/><use href="#29" y="43.42"/><use href="#30" y="45.591"/><use href="#31" y="47.762"/><use href="#32" y="54.275"/></svg><svg x="8052"><use href="#a"/><use href="#9"/><use href="#10" y="2.171"/><use href="#11" y="4.342"/><use href="#12" y="6.513"/><use href="#13" y="8.684"/><use href="#14" y="10.855"/><use href="#15" y="13.026"/><use href="#16" y="15.197"/><use href="#17" y="17.368"/><use href="#18" y="19.539"/><use href="#19" y="21.71"/><use href="#20" y="23.881"/><use href="#21" y="26.052"/><use href="#22" y="28.223"/><use href="#23" y="30.394"/><use href="#24" y="32.565"/><use href="#25" y="34.736"/><use href="#26" y="36.907"/><use href="#27" y="39.078"/><use href="#28" y="41.249"/><use href="#29" y="43.42"/><use href="#30" y="45.591"/><use href="#31" y="47.762"/><use href="#33" y="54.275"/></svg><svg x="8184"><use href="#a"/><use href="#b" x="-.004" y="54.25"/><use href="#9"/><use href="#10" y="2.171"/><use href="#11" y="4.342"/><use href="#12" y="6.513"/><use href="#13" y="8.684"/><use href="#14" y="10.855"/><use href="#15" y="13.026"/><use href="#16" y="15.197"/><use href="#17" y="17.368"/><use href="#18" y="19.539"/><use href="#19" y="21.71"/><use href="#20" y="23.881"/><use href="#21" y="26.052"/><use href="#22" y="28.223"/><use href="#23" y="30.394"/><use href="#24" y="32.565"/><use href="#25" y="34.736"/><use href="#26" y="36.907"/><use href="#27" y="39.078"/><use href="#28" y="41.249"/><use href="#29" y="43.42"/><use href="#30" y="45.591"/><use href="#31" y="47.762"/><use href="#33" y="54.275"/></svg><svg x="8316"><use href="#a"/><use href="#9"/><use href="#10" y="2.171"/><use href="#11" y="4.342"/><use href="#12" y="6.513"/><use href="#13" y="8.684"/><use href="#14" y="10.855"/><use href="#15" y="13.026"/><use href="#16" y="15.197"/><use href="#17" y="17.368"/><use href="#18" y="19.539"/><use href="#19" y="21.71"/><use href="#20" y="23.881"/><use href="#21" y="26.052"/><use href="#22" y="28.223"/><use href="#23" y="30.394"/><use href="#24" y="32.565"/><use href="#25" y="34.736"/><use href="#26" y="36.907"/><use href="#27" y="39.078"/><use href="#28" y="41.249"/><use href="#29" y="43.42"/><use href="#30" y="45.591"/><use href="#31" y="47.762"/><use href="#33" y="54.275"/></svg><svg x="8448"><use href="#a"/><use href="#9"/><use href="#10" y="2.171"/><use href="#11" y="4.342"/><use href="#12" y="6.513"/><use href="#13" y="8.684"/><use href="#14" y="10.855"/><use href="#15" y="13.026"/><use href="#16" y="15.197"/><use href="#17" y="17.368"/><use href="#18" y="19.539"/><use href="#19" y="21.71"/><use href="#20" y="23.881"/><use href="#21" y="26.052"/><use href="#22" y="28.223"/><use href="#23" y="30.394"/><use href="#24" y="32.565"/><use href="#25" y="34.736"/><use href="#26" y="36.907"/><use href="#27" y="39.078"/><use href="#28" y="41.249"/><use href="#29" y="43.42"/><use href="#30" y="45.591"/><use href="#31" y="47.762"/><use href="#34" y="54.275"/></svg><svg x="8580"><use href="#a"/><use href="#b" x="-.004" y="54.25"/><use href="#9"/><use href="#10" y="2.171"/><use href="#11" y="4.342"/><use href="#12" y="6.513"/><use href="#13" y="8.684"/><use href="#14" y="10.855"/><use href="#15" y="13.026"/><use href="#16" y="15.197"/><use href="#17" y="17.368"/><use href="#18" y="19.539"/><use href="#19" y="21.71"/><use href="#20" y="23.881"/><use href="#21" y="26.052"/><use href="#22" y="28.223"/><use href="#23" y="30.394"/><use href="#24" y="32.565"/><use href="#25" y="34.736"/><use href="#26" y="36.907"/><use href="#27" y="39.078"/><use href="#28" y="41.249"/><use href="#29" y="43.42"/><use href="#30" y="45.591"/><use href="#31" y="47.762"/><use href="#34" y="54.275"/></svg><svg x="8712"><use href="#a"/><use href="#9"/><use href="#10" y="2.171"/><use href="#11" y="4.342"/><use href="#12" y="6.513"/><use href="#13" y="8.684"/><use href="#14" y="10.855"/><use href="#15" y="13.026"/><use href="#16" y="15.197"/><use href="#17" y="17.368"/><use href="#18" y="19.539"/><use href="#19" y="21.71"/><use href="#20" y="23.881"/><use href="#21" y="26.052"/><use href="#22" y="28.223"/><use href="#23" y="30.394"/><use href="#24" y="32.565"/><use href="#25" y="34.736"/><use href="#26" y="36.907"/><use href="#27" y="39.078"/><use href="#28" y="41.249"/><use href="#29" y="43.42"/><use href="#30" y="45.591"/><use href="#31" y="47.762"/><use href="#34" y="54.275"/></svg><svg x="8844"><use href="#a"/><use href="#9"/><use href="#10" y="2.171"/><use href="#11" y="4.342"/><use href="#12" y="6.513"/><use href="#13" y="8.684"/><use href="#14" y="10.855"/><use href="#15" y="13.026"/><use href="#16" y="15.197"/><use href="#17" y="17.368"/><use href="#18" y="19.539"/><use href="#19" y="21.71"/><use href="#20" y="23.881"/><use href="#21" y="26.052"/><use href="#22" y="28.223"/><use href="#23" y="30.394"/><use href="#24" y="32.565"/><use href="#25" y="34.736"/><use href="#26" y="36.907"/><use href="#27" y="39.078"/><use href="#28" y="41.249"/><use href="#29" y="43.42"/><use href="#30" y="45.591"/><use href="#31" y="47.762"/><use href="#35" y="54.275"/></svg><svg x="8976"><use href="#a"/><use href="#b" x="-.004" y="54.25"/><use href="#9"/><use href="#10" y="2.171"/><use href="#11" y="4.342"/><use href="#12" y="6.513"/><use href="#13" y="8.684"/><use href="#14" y="10.855"/><use href="#15" y="13.026"/><use href="#16" y="15.197"/><use href="#17" y="17.368"/><use href="#18" y="19.539"/><use href="#19" y="21.71"/><use href="#20" y="23.881"/><use href="#21" y="26.052"/><use href="#22" y="28.223"/><use href="#23" y="30.394"/><use href="#24" y="32.565"/><use href="#25" y="34.736"/><use href="#26" y="36.907"/><use href="#27" y="39.078"/><use href="#28" y="41.249"/><use href="#29" y="43.42"/><use href="#30" y="45.591"/><use href="#31" y="47.762"/><use href="#35" y="54.275"/></svg><svg x="9108"><use href="#a"/><use href="#9"/><use href="#10" y="2.171"/><use href="#11" y="4.342"/><use href="#12" y="6.513"/><use href="#13" y="8.684"/><use href="#14" y="10.855"/><use href="#15" y="13.026"/><use href="#16" y="15.197"/><use href="#17" y="17.368"/><use href="#18" y="19.539"/><use href="#19" y="21.71"/><use href="#20" y="23.881"/><use href="#21" y="26.052"/><use href="#22" y="28.223"/><use href="#23" y="30.394"/><use href="#24" y="32.565"/><use href="#25" y="34.736"/><use href="#26" y="36.907"/><use href="#27" y="39.078"/><use href="#28" y="41.249"/><use href="#29" y="43.42"/><use href="#30" y="45.591"/><use href="#31" y="47.762"/><use href="#35" y="54.275"/></svg><svg x="9240"><use href="#a"/><use href="#9"/><use href="#10" y="2.171"/><use href="#11" y="4.342"/><use href="#12" y="6.513"/><use href="#13" y="8.684"/><use href="#14" y="10.855"/><use href="#15" y="13.026"/><use href="#16" y="15.197"/><use href="#17" y="17.368"/><use href="#18" y="19.539"/><use href="#19" y="21.71"/><use href="#20" y="23.881"/><use href="#21" y="26.052"/><use href="#22" y="28.223"/><use href="#23" y="30.394"/><use href="#24" y="32.565"/><use href="#25" y="34.736"/><use href="#26" y="36.907"/><use href="#27" y="39.078"/><use href="#28" y="41.249"/><use href="#29" y="43.42"/><use href="#30" y="45.591"/><use href="#31" y="47.762"/><use href="#36" y="54.275"/></svg><svg x="9372"><use href="#a"/><use href="#b" x="-.004" y="54.25"/><use href="#9"/><use href="#10" y="2.171"/><use href="#11" y="4.342"/><use href="#12" y="6.513"/><use href="#13" y="8.684"/><use href="#14" y="10.855"/><use href="#15" y="13.026"/><use href="#16" y="15.197"/><use href="#17" y="17.368"/><use href="#18" y="19.539"/><use href="#19" y="21.71"/><use href="#20" y="23.881"/><use href="#21" y="26.052"/><use href="#22" y="28.223"/><use href="#23" y="30.394"/><use href="#24" y="32.565"/><use href="#25" y="34.736"/><use href="#26" y="36.907"/><use href="#27" y="39.078"/><use href="#28" y="41.249"/><use href="#29" y="43.42"/><use href="#30" y="45.591"/><use href="#31" y="47.762"/><use href="#36" y="54.275"/></svg><svg x="9504"><use href="#a"/><use href="#9"/><use href="#10" y="2.171"/><use href="#11" y="4.342"/><use href="#12" y="6.513"/><use href="#13" y="8.684"/><use href="#14" y="10.855"/><use href="#15" y="13.026"/><use href="#16" y="15.197"/><use href="#17" y="17.368"/><use href="#18" y="19.539"/><use href="#19" y="21.71"/><use href="#20" y="23.881"/><use href="#21" y="26.052"/><use href="#22" y="28.223"/><use href="#23" y="30.394"/><use href="#24" y="32.565"/><use href="#25" y="34.736"/><use href="#26" y="36.907"/><use href="#27" y="39.078"/><use href="#28" y="41.249"/><use href="#29" y="43.42"/><use href="#30" y="45.591"/><use href="#31" y="47.762"/><use href="#36" y="54.275"/></svg></svg></g><svg height="100%" width="100%" viewBox="0 0 100 100" class="container_end"><text text-anchor="middle" alignment-baseline="central"><tspan y="50" x="50" style="font-size: 50px;">❚❚</tspan></text></svg></g></svg></svg>
